<svg xmlns="http://www.w3.org/2000/svg" viewBox="0 0 32 32" fill="none">
  <rect width="32" height="32" rx="8" fill="#0e8fe7"/>
  <path d="M16 8C13.8 8 12 9.8 12 12C12 14.2 13.8 16 16 16C18.2 16 20 14.2 20 12C20 9.8 18.2 8 16 8Z" fill="white"/>
  <path d="M8 22C8 19.2 11.6 17 16 17C20.4 17 24 19.2 24 22V24H8V22Z" fill="white" opacity="0.7"/>
  <circle cx="9" cy="12" r="3" fill="white" opacity="0.6"/>
  <circle cx="23" cy="12" r="3" fill="white" opacity="0.6"/>
  <path d="M4 20C4 18.3 6.2 17 9 17M28 20C28 18.3 25.8 17 23 17" stroke="white" stroke-width="1.5" stroke-linecap="round" opacity="0.5"/>
</svg>
